<?xml version="1.0" encoding="utf-8"?>
<!-- Generator: Adobe Illustrator 21.0.0, SVG Export Plug-In . SVG Version: 6.00 Build 0)  -->
<svg version="1.1" id="Layer_1" xmlns="http://www.w3.org/2000/svg" xmlns:xlink="http://www.w3.org/1999/xlink" x="0px" y="0px"
	 viewBox="0 0 16 24" enable-background="new 0 0 16 24" xml:space="preserve">
<path fill="#FFFFFF" d="M8.675,11.98C6.493,9.962,4.355,7.986,2.219,6.007c-0.53-0.491-1.074-0.969-1.571-1.492
	c-0.776-0.818-0.767-1.661-0.017-2.503c0.393-0.442,0.795-0.875,1.195-1.311c0.803-0.877,1.665-0.944,2.576-0.126
	c0.977,0.877,1.905,1.81,2.861,2.711c2.501,2.359,5.009,4.712,7.506,7.076c0.251,0.238,0.487,0.51,0.662,0.807
	c0.476,0.805,0.389,1.409-0.298,2.056C12.071,16.108,9,18.98,5.937,21.861c-0.494,0.465-0.96,0.96-1.448,1.431
	c-1.009,0.974-1.872,0.942-2.791-0.096c-0.363-0.41-0.723-0.822-1.085-1.233c-0.818-0.932-0.836-1.857,0.065-2.723
	c1.404-1.35,2.857-2.649,4.301-3.958C6.192,14.182,7.422,13.099,8.675,11.98z"/>
</svg>
