<?xml version="1.0" encoding="utf-8"?>
<!-- Generator: Adobe Illustrator 21.0.0, SVG Export Plug-In . SVG Version: 6.00 Build 0)  -->
<svg version="1.1" id="Layer_1" xmlns="http://www.w3.org/2000/svg" xmlns:xlink="http://www.w3.org/1999/xlink" x="0px" y="0px"
	 viewBox="0 0 24 24" enable-background="new 0 0 24 24" xml:space="preserve">
<g>
	<g>
		<path fill="#CCCCCC" d="M12,1.678c1.394,0,2.746,0.273,4.017,0.81c1.229,0.52,2.333,1.264,3.281,2.213
			c0.948,0.948,1.693,2.052,2.213,3.281c0.538,1.271,0.81,2.623,0.81,4.017s-0.273,2.746-0.81,4.017
			c-0.52,1.229-1.264,2.333-2.213,3.281c-0.948,0.948-2.052,1.693-3.281,2.213c-1.271,0.538-2.623,0.81-4.017,0.81
			s-2.746-0.273-4.017-0.81c-1.229-0.52-2.333-1.264-3.281-2.213c-0.948-0.948-1.693-2.052-2.213-3.281
			c-0.538-1.271-0.81-2.623-0.81-4.017s0.273-2.746,0.81-4.017c0.52-1.229,1.264-2.333,2.213-3.281
			C5.65,3.753,6.754,3.009,7.983,2.489C9.254,1.951,10.606,1.678,12,1.678 M12,0C5.373,0,0,5.373,0,12s5.373,12,12,12
			s12-5.373,12-12S18.627,0,12,0L12,0z"/>
	</g>
</g>
<g>
	<g>
		<circle fill="#CCCCCC" cx="14.01" cy="9.994" r="0.859"/>
		<path fill="#CCCCCC" d="M16.004,6.67h-3.157c-0.609,0-1.412,0.332-1.856,0.775l-4.93,4.93c-0.526,0.526-0.526,1.357,0,1.883
			l3.683,3.683c0.249,0.249,0.582,0.388,0.942,0.388c0.36,0,0.692-0.138,0.942-0.388l4.93-4.93c0.443-0.443,0.775-1.246,0.775-1.856
			V8C17.333,7.279,16.724,6.67,16.004,6.67z M14.01,11.628c-0.886,0-1.634-0.72-1.634-1.634c0-0.886,0.72-1.634,1.634-1.634
			c0.886,0,1.634,0.72,1.634,1.634C15.644,10.88,14.924,11.628,14.01,11.628z"/>
	</g>
</g>
</svg>
