<?xml version="1.0" encoding="utf-8"?>
<!-- Generator: Adobe Illustrator 21.0.0, SVG Export Plug-In . SVG Version: 6.00 Build 0)  -->
<svg version="1.1" id="Layer_1" xmlns="http://www.w3.org/2000/svg" xmlns:xlink="http://www.w3.org/1999/xlink" x="0px" y="0px"
	 viewBox="0 0 24 24" enable-background="new 0 0 24 24" xml:space="preserve">
<g>
	<g>
		<path fill="#CCCCCC" d="M12,1.678c1.394,0,2.746,0.273,4.017,0.81c1.229,0.52,2.333,1.264,3.281,2.213
			c0.948,0.948,1.693,2.052,2.213,3.281c0.538,1.271,0.81,2.623,0.81,4.017s-0.273,2.746-0.81,4.017
			c-0.52,1.229-1.264,2.333-2.213,3.281c-0.948,0.948-2.052,1.693-3.281,2.213c-1.271,0.538-2.623,0.81-4.017,0.81
			s-2.746-0.273-4.017-0.81c-1.229-0.52-2.333-1.264-3.281-2.213c-0.948-0.948-1.693-2.052-2.213-3.281
			c-0.538-1.271-0.81-2.623-0.81-4.017s0.273-2.746,0.81-4.017c0.52-1.229,1.264-2.333,2.213-3.281
			C5.65,3.753,6.754,3.009,7.983,2.489C9.254,1.951,10.606,1.678,12,1.678 M12,0C5.373,0,0,5.373,0,12s5.373,12,12,12
			s12-5.373,12-12S18.627,0,12,0L12,0z"/>
	</g>
	<g>
		<path fill="#5A0BCF" d="M15.606,7.971l-2.73,5.741c-0.107,0.225-0.163,0.471-0.163,0.721v3.196l-1.427,0.375v-3.571
			c0-0.249-0.056-0.496-0.163-0.721l-2.73-5.741H15.606 M17.604,6.293H6.396c-0.281,0-0.482,0.271-0.402,0.54l3.615,7.6v5.204
			c0,0.238,0.194,0.42,0.419,0.42c0.035,0,0.071-0.005,0.108-0.014l3.944-1.038c0.184-0.049,0.313-0.215,0.313-0.406v-4.166
			l3.615-7.6C18.087,6.564,17.885,6.293,17.604,6.293L17.604,6.293z"/>
	</g>
</g>
</svg>
