<?xml version="1.0" encoding="utf-8"?>
<!-- Generator: Adobe Illustrator 21.0.0, SVG Export Plug-In . SVG Version: 6.00 Build 0)  -->
<svg version="1.1" id="Layer_1" xmlns="http://www.w3.org/2000/svg" xmlns:xlink="http://www.w3.org/1999/xlink" x="0px" y="0px"
	 viewBox="0 0 24 24" enable-background="new 0 0 24 24" xml:space="preserve">
<g>
	<g>
		<path fill="#CCCCCC" d="M12,1.678c1.394,0,2.746,0.273,4.017,0.81c1.229,0.52,2.333,1.264,3.281,2.213
			c0.948,0.948,1.693,2.052,2.213,3.281c0.538,1.271,0.81,2.623,0.81,4.017s-0.273,2.746-0.81,4.017
			c-0.52,1.229-1.264,2.333-2.213,3.281c-0.948,0.948-2.052,1.693-3.281,2.213c-1.271,0.538-2.623,0.81-4.017,0.81
			s-2.746-0.273-4.017-0.81c-1.229-0.52-2.333-1.264-3.281-2.213c-0.948-0.948-1.693-2.052-2.213-3.281
			c-0.538-1.271-0.81-2.623-0.81-4.017s0.273-2.746,0.81-4.017c0.52-1.229,1.264-2.333,2.213-3.281
			C5.65,3.753,6.754,3.009,7.983,2.489C9.254,1.951,10.606,1.678,12,1.678 M12,0C5.373,0,0,5.373,0,12s5.373,12,12,12
			s12-5.373,12-12S18.627,0,12,0L12,0z"/>
	</g>
</g>
<g>
	<circle fill="#CCCCCC" cx="7.57" cy="8.909" r="2.075"/>
	<path fill="#CCCCCC" d="M7.97,13.833l-1.947,2.295c-0.485,0.571-0.268,1.038,0.481,1.038h11.152c0.75,0,1.064-0.535,0.697-1.189
		L14.99,9.964c-0.365-0.654-0.989-0.669-1.387-0.034l-1.955,3.123c-0.398,0.635-1.19,0.837-1.76,0.448
		C9.317,13.113,8.455,13.262,7.97,13.833z"/>
</g>
</svg>
