<?xml version="1.0" encoding="utf-8"?>
<!-- Generator: Adobe Illustrator 21.0.0, SVG Export Plug-In . SVG Version: 6.00 Build 0)  -->
<svg version="1.1" id="Layer_1" xmlns="http://www.w3.org/2000/svg" xmlns:xlink="http://www.w3.org/1999/xlink" x="0px" y="0px"
	 viewBox="0 0 24 24" enable-background="new 0 0 24 24" xml:space="preserve">
<g>
	<g>
		<path fill="#CCCBCB" d="M12,24c-3.205,0-6.219-1.248-8.485-3.515C1.248,18.219,0,15.205,0,12s1.248-6.219,3.515-8.485
			C5.781,1.248,8.795,0,12,0s6.219,1.248,8.485,3.515C22.752,5.781,24,8.795,24,12s-1.248,6.219-3.515,8.485
			C18.219,22.752,15.205,24,12,24z M12,2.303c-5.347,0-9.697,4.35-9.697,9.697s4.35,9.697,9.697,9.697s9.697-4.35,9.697-9.697
			S17.347,2.303,12,2.303z"/>
	</g>
	<g>
		<path fill="#CCCBCB" d="M9.826,16.405c-0.554,0-1.074-0.216-1.466-0.607l-1.889-1.889c-0.45-0.45-0.45-1.179,0-1.629
			c0.45-0.45,1.179-0.45,1.629,0l1.726,1.726L15.9,7.932c0.45-0.45,1.179-0.45,1.629,0c0.45,0.45,0.45,1.179,0,1.629l-6.237,6.237
			C10.9,16.19,10.38,16.405,9.826,16.405z"/>
	</g>
</g>
</svg>
