<?xml version="1.0" encoding="utf-8"?>
<!-- Generator: Adobe Illustrator 21.0.0, SVG Export Plug-In . SVG Version: 6.00 Build 0)  -->
<svg version="1.1" id="Layer_1" xmlns="http://www.w3.org/2000/svg" xmlns:xlink="http://www.w3.org/1999/xlink" x="0px" y="0px"
	 viewBox="0 0 24 24" enable-background="new 0 0 24 24" xml:space="preserve">
<g>
	<g>
		<path fill="#CCCBCB" d="M12,24c-3.205,0-6.219-1.248-8.485-3.515C1.248,18.219,0,15.205,0,12s1.248-6.219,3.515-8.485
			C5.781,1.248,8.795,0,12,0s6.219,1.248,8.485,3.515C22.752,5.781,24,8.795,24,12s-1.248,6.219-3.515,8.485
			C18.219,22.752,15.205,24,12,24z M12,2.303c-5.347,0-9.697,4.35-9.697,9.697s4.35,9.697,9.697,9.697s9.697-4.35,9.697-9.697
			S17.347,2.303,12,2.303z"/>
	</g>
	<g>
		<path fill="#CCCBCB" d="M6.68,16.906c-0.362,0-0.718-0.17-0.942-0.488c-0.367-0.52-0.243-1.238,0.277-1.605l4.833-3.41v-6.29
			c0-0.636,0.516-1.152,1.152-1.152s1.152,0.516,1.152,1.152v7.484l-5.808,4.098C7.142,16.838,6.91,16.906,6.68,16.906z"/>
	</g>
</g>
</svg>
