<?xml version="1.0" encoding="utf-8"?>
<!-- Generator: Adobe Illustrator 21.0.0, SVG Export Plug-In . SVG Version: 6.00 Build 0)  -->
<svg version="1.1" id="Layer_1" xmlns="http://www.w3.org/2000/svg" xmlns:xlink="http://www.w3.org/1999/xlink" x="0px" y="0px"
	 viewBox="0 0 24 24" enable-background="new 0 0 24 24" xml:space="preserve">
<g>
	<path fill="#CCCBCB" d="M20.485,3.515C18.219,1.248,15.205,0,12,0S5.781,1.248,3.515,3.515C1.248,5.781,0,8.795,0,12
		s1.248,6.219,3.515,8.485C5.781,22.752,8.795,24,12,24s6.219-1.248,8.485-3.515C22.752,18.219,24,15.205,24,12
		S22.752,5.781,20.485,3.515z M12,21.697c-5.347,0-9.697-4.35-9.697-9.697S6.653,2.303,12,2.303s9.697,4.35,9.697,9.697
		S17.347,21.697,12,21.697z"/>
	<path fill="#CCCBCB" d="M16.633,7.367c-0.45-0.45-1.179-0.45-1.629,0L12,10.371L8.995,7.367c-0.45-0.45-1.179-0.45-1.629,0
		c-0.45,0.45-0.45,1.179,0,1.629L10.371,12l-3.005,3.005c-0.45,0.45-0.45,1.179,0,1.629c0.225,0.225,0.52,0.337,0.814,0.337
		c0.295,0,0.589-0.112,0.814-0.337L12,13.629l3.005,3.005c0.225,0.225,0.52,0.337,0.814,0.337s0.589-0.112,0.814-0.337
		c0.45-0.45,0.45-1.179,0-1.629L13.629,12l3.005-3.005C17.083,8.546,17.083,7.816,16.633,7.367z"/>
</g>
</svg>
