<?xml version="1.0" encoding="utf-8"?>
<!-- Generator: Adobe Illustrator 21.0.0, SVG Export Plug-In . SVG Version: 6.00 Build 0)  -->
<svg version="1.1" id="Layer_1" xmlns="http://www.w3.org/2000/svg" xmlns:xlink="http://www.w3.org/1999/xlink" x="0px" y="0px"
	 viewBox="0 0 24 24" enable-background="new 0 0 24 24" xml:space="preserve">
<g>
	<g>
		<path fill="#CCCCCC" d="M12,1.678c1.394,0,2.746,0.273,4.017,0.81c1.229,0.52,2.333,1.264,3.281,2.213
			c0.948,0.948,1.693,2.052,2.213,3.281c0.538,1.271,0.81,2.623,0.81,4.017s-0.273,2.746-0.81,4.017
			c-0.52,1.229-1.264,2.333-2.213,3.281c-0.948,0.948-2.052,1.693-3.281,2.213c-1.271,0.538-2.623,0.81-4.017,0.81
			s-2.746-0.273-4.017-0.81c-1.229-0.52-2.333-1.264-3.281-2.213c-0.948-0.948-1.693-2.052-2.213-3.281
			c-0.538-1.271-0.81-2.623-0.81-4.017s0.273-2.746,0.81-4.017c0.52-1.229,1.264-2.333,2.213-3.281
			C5.65,3.753,6.754,3.009,7.983,2.489C9.254,1.951,10.606,1.678,12,1.678 M12,0C5.373,0,0,5.373,0,12s5.373,12,12,12
			s12-5.373,12-12S18.627,0,12,0L12,0z"/>
	</g>
</g>
<g>
	<g>
		<path fill="#5A0BCF" d="M16.882,7.563H7.118c-0.456,0-0.826-0.37-0.826-0.826c0-0.456,0.37-0.826,0.826-0.826h9.765
			c0.456,0,0.826,0.37,0.826,0.826C17.708,7.193,17.338,7.563,16.882,7.563z"/>
	</g>
	<g>
		<path fill="#5A0BCF" d="M14.592,11.154H7.118c-0.456,0-0.826-0.37-0.826-0.826s0.37-0.826,0.826-0.826h7.474
			c0.456,0,0.826,0.37,0.826,0.826S15.048,11.154,14.592,11.154z"/>
	</g>
	<g>
		<path fill="#5A0BCF" d="M11.062,14.559H7.118c-0.456,0-0.826-0.37-0.826-0.826c0-0.456,0.37-0.826,0.826-0.826h3.945
			c0.456,0,0.826,0.37,0.826,0.826C11.888,14.19,11.518,14.559,11.062,14.559z"/>
	</g>
	<g>
		<path fill="#5A0BCF" d="M8.462,18.088H7.118c-0.456,0-0.826-0.37-0.826-0.826c0-0.456,0.37-0.826,0.826-0.826h1.344
			c0.456,0,0.826,0.37,0.826,0.826C9.288,17.719,8.918,18.088,8.462,18.088z"/>
	</g>
</g>
</svg>
