<?xml version="1.0" encoding="utf-8"?>
<!-- Generator: Adobe Illustrator 21.0.0, SVG Export Plug-In . SVG Version: 6.00 Build 0)  -->
<svg version="1.1" id="Layer_1" xmlns="http://www.w3.org/2000/svg" xmlns:xlink="http://www.w3.org/1999/xlink" x="0px" y="0px"
	 viewBox="0 0 24 24" enable-background="new 0 0 24 24" xml:space="preserve">
<path fill="#FFFFFF" d="M23.506,21.121l-3.942-3.942c1.342-1.838,2.078-4.039,2.078-6.358c0-2.89-1.126-5.608-3.17-7.651
	C16.428,1.126,13.711,0,10.821,0S5.213,1.126,3.169,3.17S0,7.931,0,10.821s1.125,5.608,3.169,7.651
	c2.044,2.044,4.761,3.17,7.651,3.17c2.319,0,4.52-0.736,6.358-2.078l3.943,3.942C21.45,23.835,21.882,24,22.314,24
	s0.863-0.165,1.192-0.494C24.165,22.847,24.165,21.78,23.506,21.121z M10.821,18.269c-1.989,0-3.86-0.775-5.267-2.181
	c-1.407-1.407-2.181-3.277-2.181-5.266s0.774-3.86,2.181-5.267c1.407-1.407,3.277-2.181,5.267-2.181c1.99,0,3.86,0.775,5.267,2.181
	c1.407,1.407,2.181,3.277,2.181,5.267c0,1.99-0.775,3.86-2.181,5.266C14.68,17.494,12.81,18.269,10.821,18.269z"/>
</svg>
